<?xml version="1.0" encoding="iso-8859-1"?>
<!-- Uploaded to: SVG Repo, www.svgrepo.com, Generator: SVG Repo Mixer Tools -->
<svg height="800px" width="800px" version="1.1" id="Layer_1" xmlns="http://www.w3.org/2000/svg" xmlns:xlink="http://www.w3.org/1999/xlink" 
	 viewBox="0 0 511.987 511.987" xml:space="preserve">
<path style="fill:#CCD1D9;" d="M479.987,261.326H32c-5.891,0-10.664,4.773-10.664,10.663V442.64c0,5.906,4.773,10.688,10.664,10.688
	h447.987c5.891,0,10.655-4.781,10.655-10.688V271.989C490.642,266.099,485.878,261.326,479.987,261.326z"/>
<path style="fill:#37BC9B;" d="M510.189,266.068l-21.328-31.945c-1.983-2.961-5.312-4.742-8.874-4.742H32
	c-3.562,0-6.891,1.781-8.867,4.742L1.797,266.068c-2.187,3.273-2.39,7.483-0.539,10.952c1.859,3.469,5.477,5.625,9.406,5.625H501.33
	c3.922,0,7.531-2.156,9.406-5.625C512.58,273.552,512.377,269.342,510.189,266.068z"/>
<path style="fill:#E6E9ED;" d="M351.991,197.265H159.996c-5.891,0-10.664,4.781-10.664,10.671V442.64
	c0,5.906,4.773,10.688,10.664,10.688h191.995c5.89,0,10.655-4.781,10.655-10.688V207.936
	C362.646,202.046,357.881,197.265,351.991,197.265z"/>
<g>
	<path style="fill:#4A89DC;" d="M117.333,325.332H53.335c-5.89,0-10.671-4.781-10.671-10.688c0-5.875,4.781-10.656,10.671-10.656
		h63.999c5.89,0,10.664,4.781,10.664,10.656C127.997,320.551,123.223,325.332,117.333,325.332z"/>
	<path style="fill:#4A89DC;" d="M117.333,367.986H53.335c-5.89,0-10.671-4.781-10.671-10.655c0-5.906,4.781-10.688,10.671-10.688
		h63.999c5.89,0,10.664,4.781,10.664,10.688C127.997,363.205,123.223,367.986,117.333,367.986z"/>
	<path style="fill:#4A89DC;" d="M117.333,410.642H53.335c-5.89,0-10.671-4.766-10.671-10.656s4.781-10.656,10.671-10.656h63.999
		c5.89,0,10.664,4.766,10.664,10.656S123.223,410.642,117.333,410.642z"/>
</g>
<g>
	<path style="fill:#5D9CEC;" d="M319.992,261.326H191.995c-5.891,0-10.664-4.781-10.664-10.672c0-5.891,4.773-10.664,10.664-10.664
		h127.997c5.891,0,10.656,4.773,10.656,10.664S325.883,261.326,319.992,261.326z"/>
	<path style="fill:#5D9CEC;" d="M319.992,303.988H191.995c-5.891,0-10.664-4.781-10.664-10.655c0-5.906,4.773-10.688,10.664-10.688
		h127.997c5.891,0,10.656,4.781,10.656,10.688C330.648,299.207,325.883,303.988,319.992,303.988z"/>
	<path style="fill:#5D9CEC;" d="M319.992,346.643H191.995c-5.891,0-10.664-4.766-10.664-10.655c0-5.891,4.773-10.656,10.664-10.656
		h127.997c5.891,0,10.656,4.766,10.656,10.656C330.648,341.878,325.883,346.643,319.992,346.643z"/>
	<path style="fill:#5D9CEC;" d="M319.992,389.33H191.995c-5.891,0-10.664-4.781-10.664-10.688c0-5.875,4.773-10.656,10.664-10.656
		h127.997c5.891,0,10.656,4.781,10.656,10.656C330.648,384.549,325.883,389.33,319.992,389.33z"/>
</g>
<g>
	<path style="fill:#4A89DC;" d="M458.644,325.332h-63.998c-5.875,0-10.656-4.781-10.656-10.688c0-5.875,4.781-10.656,10.656-10.656
		h63.998c5.906,0,10.688,4.781,10.688,10.656C469.332,320.551,464.551,325.332,458.644,325.332z"/>
	<path style="fill:#4A89DC;" d="M458.644,367.986h-63.998c-5.875,0-10.656-4.781-10.656-10.655c0-5.906,4.781-10.688,10.656-10.688
		h63.998c5.906,0,10.688,4.781,10.688,10.688C469.332,363.205,464.551,367.986,458.644,367.986z"/>
	<path style="fill:#4A89DC;" d="M458.644,410.642h-63.998c-5.875,0-10.656-4.766-10.656-10.656s4.781-10.656,10.656-10.656h63.998
		c5.906,0,10.688,4.766,10.688,10.656S464.551,410.642,458.644,410.642z"/>
</g>
<path style="fill:#434A54;" d="M255.993,453.328c-5.89,0-10.664-4.781-10.664-10.688v-21.312c0-5.906,4.773-10.687,10.664-10.687
	c5.892,0,10.665,4.78,10.665,10.687v21.312C266.658,448.547,261.885,453.328,255.993,453.328z"/>
<path style="fill:#656D78;" d="M490.642,453.328H21.336c-5.89,0-10.671-4.781-10.671-10.688c0-5.875,4.781-10.656,10.671-10.656
	h469.307c5.906,0,10.688,4.781,10.688,10.656C501.33,448.547,496.549,453.328,490.642,453.328z"/>
<path style="fill:#37BC9B;" d="M255.993,58.66c-29.405,0-53.334,23.929-53.334,53.334s23.929,53.334,53.334,53.334
	c29.406,0,53.343-23.929,53.343-53.334S285.399,58.66,255.993,58.66z"/>
<path style="fill:#CCD1D9;" d="M271.993,122.658h-32c-5.89,0-10.664-4.773-10.664-10.664s4.773-10.664,10.664-10.664h32
	c5.891,0,10.656,4.773,10.656,10.664S277.884,122.658,271.993,122.658z"/>
<path style="fill:#E6E9ED;" d="M255.993,138.657c-5.89,0-10.664-4.773-10.664-10.663v-32c0-5.89,4.773-10.664,10.664-10.664
	c5.892,0,10.665,4.773,10.665,10.664v32C266.658,133.884,261.885,138.657,255.993,138.657z"/>
<path style="fill:#48CFAD;" d="M138.661,218.6h234.673c3.922,0,7.531-2.164,9.406-5.641c1.844-3.469,1.641-7.68-0.547-10.953
	l-21.328-31.937c-1.984-2.969-5.312-4.742-8.874-4.742H159.996c-3.562,0-6.891,1.773-8.867,4.742l-21.335,31.938
	c-2.188,3.273-2.391,7.484-0.539,10.953C131.114,216.436,134.731,218.6,138.661,218.6z"/>
</svg>